<svg id="Capa_1" enable-background="new 0 0 509.017 509.017" height="512" viewBox="0 0 509.017 509.017" width="512" xmlns="http://www.w3.org/2000/svg"><g><g><g><path d="m261.052 76.212-7.465-20.721c-2.121-5.886-7.705-9.81-13.961-9.81h-74.849c-8.196 0-14.84 6.644-14.84 14.84v150.261c0 4.633 3.756 8.39 8.389 8.39h192.364c4.633 0 8.389-3.756 8.389-8.39v-120.634c0-4.633-3.756-8.389-8.389-8.389h-81.745c-3.537-.001-6.694-2.219-7.893-5.547z" fill="#ffe07d"/></g></g><g><g><path d="m305.895 182.704h-102.773c-2.057 0-3.725-1.667-3.725-3.725v-39.607c0-2.057 1.668-3.725 3.725-3.725h102.773c2.057 0 3.725 1.668 3.725 3.725v39.607c-.001 2.058-1.668 3.725-3.725 3.725z" fill="#95d6a4"/></g></g><g><g><path d="m131.572 398.129h-105.107v-66.979c0-3.143 2.548-5.691 5.691-5.691h93.726c3.143 0 5.691 2.548 5.691 5.691v66.979z" fill="#fdfcfc"/></g></g><g><g><path d="m83.375 372.224-5.098-14.149c-1.448-4.019-5.261-6.699-9.533-6.699h-51.11c-5.596 0-10.133 4.537-10.133 10.133v96.097c0 3.164 2.565 5.729 5.729 5.729h131.354c3.164 0 5.729-2.565 5.729-5.729v-75.866c0-3.164-2.565-5.729-5.729-5.729h-55.82c-2.415 0-4.571-1.515-5.389-3.787z" fill="#ffe07d"/></g></g><g><g><path d="m307.175 398.129h-105.108v-66.979c0-3.143 2.548-5.691 5.691-5.691h93.726c3.143 0 5.691 2.548 5.691 5.691z" fill="#fdfcfc"/></g></g><g><g><path d="m258.977 372.224-5.098-14.149c-1.448-4.019-5.261-6.699-9.533-6.699h-51.11c-5.596 0-10.133 4.537-10.133 10.133v96.097c0 3.164 2.565 5.729 5.729 5.729h131.354c3.164 0 5.729-2.565 5.729-5.729v-75.866c0-3.164-2.565-5.729-5.729-5.729h-55.819c-2.416 0-4.571-1.515-5.39-3.787z" fill="#ffd064"/></g></g><g><g><path d="m482.777 398.129h-105.108v-66.979c0-3.143 2.548-5.691 5.691-5.691h93.726c3.143 0 5.691 2.548 5.691 5.691z" fill="#fdfcfc"/></g></g><g><g><path d="m434.579 372.224-5.098-14.149c-1.448-4.019-5.261-6.699-9.533-6.699h-51.11c-5.596 0-10.133 4.537-10.133 10.133v96.097c0 3.164 2.565 5.729 5.729 5.729h131.354c3.164 0 5.729-2.565 5.729-5.729v-75.866c0-3.164-2.565-5.729-5.729-5.729h-55.819c-2.415 0-4.571-1.515-5.39-3.787z" fill="#ffe07d"/></g></g><g><g><path d="m350.69 81.758h-30c4.633 0 8.389 3.756 8.389 8.389v120.634c0 4.633-3.756 8.39-8.389 8.39h30c4.633 0 8.389-3.756 8.389-8.39v-120.633c.001-4.633-3.756-8.39-8.389-8.39z" fill="#ffd064"/></g></g><g><g><path d="m303.749 135.648h-27.854c2.057 0 3.725 1.668 3.725 3.725v39.608c0 2.057-1.668 3.725-3.725 3.725h27.854c2.057 0 3.725-1.667 3.725-3.725v-39.608c0-2.058-1.668-3.725-3.725-3.725z" fill="#78c2a4"/></g></g><g><g><path d="m144.583 376.011h-30c3.164 0 5.729 2.565 5.729 5.729v75.867c0 3.164-2.565 5.729-5.729 5.729h30c3.164 0 5.729-2.565 5.729-5.729v-75.867c0-3.164-2.565-5.729-5.729-5.729z" fill="#ffd064"/></g></g><g><g><path d="m320.185 376.011h-30c3.164 0 5.729 2.565 5.729 5.729v75.867c0 3.164-2.565 5.729-5.729 5.729h30c3.164 0 5.729-2.565 5.729-5.729v-75.867c0-3.164-2.565-5.729-5.729-5.729z" fill="#ffd064"/></g></g><g><g><path d="m495.788 376.011h-30c3.164 0 5.729 2.565 5.729 5.729v75.867c0 3.164-2.565 5.729-5.729 5.729h30c3.164 0 5.729-2.565 5.729-5.729v-75.867c-.001-3.164-2.565-5.729-5.729-5.729z" fill="#ffd064"/></g></g><g><path d="m305.895 190.204c6.19 0 11.225-5.035 11.225-11.225v-39.608c0-6.189-5.035-11.225-11.225-11.225h-102.773c-6.189 0-11.225 5.035-11.225 11.225v39.608c0 6.189 5.035 11.225 11.225 11.225zm-98.998-47.056h95.223v32.057h-95.223z"/><path d="m495.788 368.511h-5.51v-37.361c0-7.273-5.917-13.191-13.191-13.191h-46.739v-47.144c0-4.142-3.358-7.5-7.5-7.5h-162.84v-36.644h90.682c8.762 0 15.89-7.128 15.89-15.89v-120.633c0-8.761-7.128-15.889-15.89-15.889h-81.745c-.374 0-.71-.236-.836-.588l-7.465-20.721c-3.183-8.833-11.629-14.768-21.018-14.768h-74.849c-12.318 0-22.34 10.021-22.34 22.34v84.109c0 4.142 3.358 7.5 7.5 7.5s7.5-3.358 7.5-7.5v-84.11c0-4.047 3.292-7.34 7.34-7.34h74.849c3.085 0 5.86 1.95 6.905 4.852l7.465 20.721c2.263 6.283 8.27 10.504 14.949 10.504h81.745c.491 0 .89.399.89.889v120.634c0 .491-.399.89-.89.89h-192.363c-.491 0-.89-.399-.89-.89v-36.151c0-4.142-3.358-7.5-7.5-7.5s-7.5 3.358-7.5 7.5v36.151c0 8.762 7.128 15.89 15.89 15.89h86.682v36.644h-158.84c-4.142 0-7.5 3.358-7.5 7.5v47.144h-46.513c-7.274 0-13.191 5.917-13.191 13.191v12.726h-1.331c-9.724 0-17.634 7.91-17.634 17.634v96.097c0 7.294 5.935 13.229 13.229 13.229h131.354c7.294 0 13.229-5.934 13.229-13.229v-75.867c0-7.295-5.934-13.229-13.229-13.229h-5.511v-37.361c0-7.273-5.917-13.191-13.19-13.191h-32.213v-39.644h151.339v39.644h-37.251c-7.273 0-13.191 5.917-13.191 13.191v12.726h-1.331c-9.723 0-17.633 7.91-17.633 17.633v96.097c0 7.294 5.934 13.229 13.229 13.229h43.595c4.142 0 7.5-3.358 7.5-7.5s-3.358-7.5-7.5-7.5h-41.824v-94.325c0-1.452 1.181-2.633 2.633-2.633h51.11c1.107 0 2.103.7 2.478 1.741l5.098 14.148c1.884 5.231 6.885 8.746 12.446 8.746h54.047v72.324h-55.988c-4.142 0-7.5 3.358-7.5 7.5s3.358 7.5 7.5 7.5h57.759c7.294 0 13.229-5.934 13.229-13.229v-75.867c0-7.295-5.934-13.229-13.229-13.229h-5.511v-37.361c0-7.273-5.918-13.191-13.191-13.191h-41.476v-39.644h155.339v39.644h-31.986c-7.273 0-13.191 5.917-13.191 13.191v12.726h-1.332c-9.723 0-17.633 7.91-17.633 17.633v96.097c0 7.294 5.934 13.229 13.229 13.229h131.354c7.294 0 13.229-5.934 13.229-13.229v-75.866c.001-7.295-5.934-13.229-13.228-13.229zm-352.977 87.324h-127.811v-94.325c0-1.452 1.181-2.633 2.633-2.633h51.11c1.106 0 2.102.699 2.477 1.741l5.098 14.149v.001c1.884 5.23 6.886 8.745 12.445 8.745h54.047v72.322zm-18.739-87.324h-34.063l-4.676-12.978c-2.511-6.973-9.178-11.657-16.589-11.657h-34.779v-10.917h90.107zm175.603 0h-34.064l-4.676-12.979c-2.512-6.972-9.179-11.656-16.59-11.656h-34.779v-10.917h90.108v35.552zm85.494-35.552h90.108v35.552h-34.064l-4.675-12.979c-2.512-6.972-9.179-11.656-16.59-11.656h-34.779zm108.848 122.876h-127.812v-94.325c0-1.452 1.181-2.633 2.633-2.633h51.11c1.107 0 2.103.7 2.478 1.741l5.097 14.149v.001c1.884 5.23 6.886 8.745 12.445 8.745h54.048v72.322z"/></g></g></svg>