<svg id="Capa_1" enable-background="new 0 0 511 511" height="512" viewBox="0 0 511 511" width="512" xmlns="http://www.w3.org/2000/svg"><g><g><g><path d="m43.035 489.3h-28.509c-3.88 0-7.026-3.146-7.026-7.026v-28.509c0-3.88 3.146-7.026 7.026-7.026h28.509c3.88 0 7.026 3.146 7.026 7.026v28.509c0 3.881-3.145 7.026-7.026 7.026z" fill="#ff8086"/></g></g><g><g><path d="m274.594 442.908v-71.104h-38.189v71.104c0 3.323-2.694 6.017-6.017 6.017h-41.147c-4.927 0-8.922 3.994-8.922 8.922v20.345c0 4.927 3.994 8.922 8.922 8.922h132.516c4.927 0 8.922-3.994 8.922-8.922v-20.345c0-4.927-3.994-8.922-8.922-8.922h-41.147c-3.322 0-6.016-2.694-6.016-6.017z" fill="#d4cfd5"/></g></g><g><g><path d="m321.758 448.925h-30c4.927 0 8.922 3.994 8.922 8.922v20.345c0 4.927-3.994 8.922-8.922 8.922h30c4.927 0 8.922-3.994 8.922-8.922v-20.345c-.001-4.928-3.995-8.922-8.922-8.922z" fill="#b1abb4"/></g></g><g><g><path d="m496.474 489.3h-28.509c-3.88 0-7.026-3.146-7.026-7.026v-28.509c0-3.88 3.146-7.026 7.026-7.026h28.509c3.88 0 7.026 3.146 7.026 7.026v28.509c0 3.881-3.146 7.026-7.026 7.026z" fill="#ffe07d"/></g></g><g><g><path d="m129.446 489.3h-28.51c-3.88 0-7.026-3.146-7.026-7.026v-28.509c0-3.88 3.146-7.026 7.026-7.026h28.51c3.88 0 7.026 3.146 7.026 7.026v28.509c0 3.881-3.146 7.026-7.026 7.026z" fill="#ffe07d"/></g></g><g><g><path d="m407.83 489.3h-28.51c-3.88 0-7.026-3.146-7.026-7.026v-28.509c0-3.88 3.146-7.026 7.026-7.026h28.51c3.88 0 7.026 3.146 7.026 7.026v28.509c0 3.881-3.146 7.026-7.026 7.026z" fill="#ff8086"/></g></g><g><g><path d="m138.798 243.12h230.497v32.841h-230.497z" fill="#62a4fb"/></g></g><g><g><path d="m412.013 370.627h-313.026c-5.888 0-10.661-4.773-10.661-10.661v-73.345c0-5.888 4.773-10.661 10.661-10.661h313.026c5.888 0 10.661 4.773 10.661 10.661v73.345c0 5.888-4.773 10.661-10.661 10.661z" fill="#80b6fc"/></g></g><g><g><path d="m389.394 340.495h-134.234c-3.441 0-6.23-2.789-6.23-6.23v-20.918c0-3.441 2.789-6.23 6.23-6.23h134.234c3.441 0 6.23 2.789 6.23 6.23v20.918c-.001 3.441-2.79 6.23-6.23 6.23z" fill="#bed9fd"/></g></g><g><g><path d="m138.798 116.366h230.497v32.841h-230.497z" fill="#62a4fb"/></g></g><g><g><path d="m412.013 243.873h-313.026c-5.888 0-10.661-4.773-10.661-10.661v-73.345c0-5.888 4.773-10.661 10.661-10.661h313.026c5.888 0 10.661 4.773 10.661 10.661v73.345c0 5.888-4.773 10.661-10.661 10.661z" fill="#80b6fc"/></g></g><g><g><path d="m389.394 213.741h-134.234c-3.441 0-6.23-2.789-6.23-6.23v-20.918c0-3.441 2.789-6.23 6.23-6.23h134.234c3.441 0 6.23 2.789 6.23 6.23v20.918c-.001 3.441-2.79 6.23-6.23 6.23z" fill="#bed9fd"/></g></g><g><g><path d="m412.013 116.366h-313.026c-5.888 0-10.661-4.773-10.661-10.661v-73.345c0-5.888 4.773-10.661 10.661-10.661h313.026c5.888 0 10.661 4.773 10.661 10.661v73.345c0 5.888-4.773 10.661-10.661 10.661z" fill="#80b6fc"/></g></g><g><g><path d="m389.394 86.234h-134.234c-3.441 0-6.23-2.789-6.23-6.23v-20.918c0-3.441 2.789-6.23 6.23-6.23h134.234c3.441 0 6.23 2.789 6.23 6.23v20.918c-.001 3.441-2.79 6.23-6.23 6.23z" fill="#bed9fd"/></g></g><g><g><path d="m339.295 243.12h30v32.841h-30z" fill="#5392f9"/></g></g><g><g><path d="m412.013 275.961h-30c5.888 0 10.661 4.773 10.661 10.661v73.345c0 5.888-4.773 10.661-10.661 10.661h30c5.888 0 10.661-4.773 10.661-10.661v-73.345c0-5.888-4.773-10.661-10.661-10.661z" fill="#62a4fb"/></g></g><g><g><path d="m389.394 307.117h-30c3.441 0 6.23 2.789 6.23 6.23v20.918c0 3.441-2.789 6.23-6.23 6.23h30c3.441 0 6.23-2.789 6.23-6.23v-20.918c-.001-3.44-2.79-6.23-6.23-6.23z" fill="#80b6fc"/></g></g><g><g><path d="m339.295 116.366h30v32.841h-30z" fill="#5392f9"/></g></g><g><g><path d="m412.013 149.206h-30c5.888 0 10.661 4.773 10.661 10.661v73.345c0 5.888-4.773 10.661-10.661 10.661h30c5.888 0 10.661-4.773 10.661-10.661v-73.345c0-5.888-4.773-10.661-10.661-10.661z" fill="#62a4fb"/></g></g><g><g><path d="m389.394 180.363h-30c3.441 0 6.23 2.789 6.23 6.23v20.918c0 3.441-2.789 6.23-6.23 6.23h30c3.441 0 6.23-2.789 6.23-6.23v-20.918c-.001-3.441-2.79-6.23-6.23-6.23z" fill="#80b6fc"/></g></g><g><g><path d="m412.013 21.7h-30c5.888 0 10.661 4.773 10.661 10.661v73.345c0 5.888-4.773 10.661-10.661 10.661h30c5.888 0 10.661-4.773 10.661-10.661v-73.346c0-5.887-4.773-10.66-10.661-10.66z" fill="#62a4fb"/></g></g><g><g><path d="m389.394 52.856h-30c3.441 0 6.23 2.789 6.23 6.23v20.918c0 3.441-2.789 6.23-6.23 6.23h30c3.441 0 6.23-2.789 6.23-6.23v-20.918c-.001-3.441-2.79-6.23-6.23-6.23z" fill="#80b6fc"/></g></g><g><ellipse cx="127.256" cy="323.294" rx="7.041" ry="7.041" transform="matrix(.987 -.158 .158 .987 -49.507 24.182)"/><circle cx="157.569" cy="323.294" r="7.041"/><circle cx="187.881" cy="323.294" r="7.041"/><ellipse cx="218.193" cy="323.294" rx="7.041" ry="7.041" transform="matrix(.922 -.387 .387 .922 -108.124 109.648)"/><ellipse cx="127.256" cy="196.54" rx="7.041" ry="7.041" transform="matrix(.987 -.158 .158 .987 -29.47 22.589)"/><circle cx="157.569" cy="196.54" r="7.041"/><circle cx="187.881" cy="196.54" r="7.041"/><ellipse cx="218.193" cy="196.54" rx="7.041" ry="7.041" transform="matrix(.922 -.387 .387 .922 -59.064 99.769)"/><path d="m120.216 69.033c0 3.888 3.152 7.041 7.041 7.041s7.041-3.152 7.041-7.041-3.152-7.041-7.041-7.041-7.041 3.152-7.041 7.041z"/><path d="m150.528 69.033c0 3.888 3.152 7.041 7.041 7.041s7.041-3.152 7.041-7.041-3.152-7.041-7.041-7.041-7.041 3.152-7.041 7.041z"/><circle cx="187.881" cy="69.033" r="7.041"/><path d="m225.234 69.033c0-3.889-3.152-7.041-7.041-7.041s-7.041 3.152-7.041 7.041c0 3.888 3.152 7.041 7.041 7.041s7.041-3.153 7.041-7.041z"/><path d="m496.474 439.239h-28.509c-8.01 0-14.526 6.516-14.526 14.526v6.755h-31.083v-6.755c0-8.01-6.516-14.526-14.526-14.526h-28.51c-8.01 0-14.526 6.516-14.526 14.526v6.755h-26.615v-2.673c0-9.055-7.367-16.422-16.421-16.422h-39.664v-63.298h129.918c10.014 0 18.161-8.147 18.161-18.161v-73.345c0-10.014-8.147-18.161-18.161-18.161h-35.218v-17.088h35.218c10.014 0 18.161-8.147 18.161-18.161v-73.345c0-10.014-8.147-18.161-18.161-18.161h-35.218v-17.841h35.218c10.014 0 18.161-8.147 18.161-18.161v-73.343c0-10.014-8.147-18.161-18.161-18.161h-213.13c-4.142 0-7.5 3.358-7.5 7.5s3.358 7.5 7.5 7.5h213.131c1.743 0 3.161 1.418 3.161 3.161v73.345c0 1.743-1.418 3.161-3.161 3.161h-313.026c-1.743 0-3.161-1.418-3.161-3.161v-73.345c0-1.743 1.418-3.161 3.161-3.161h69.895c4.142 0 7.5-3.358 7.5-7.5s-3.358-7.5-7.5-7.5h-69.895c-10.014 0-18.161 8.147-18.161 18.161v73.345c0 10.014 8.147 18.161 18.161 18.161h32.311v17.841h-32.311c-10.014 0-18.161 8.147-18.161 18.161v73.345c0 10.014 8.147 18.161 18.161 18.161h32.311v17.088h-32.311c-10.014 0-18.161 8.147-18.161 18.161v73.345c0 10.014 8.147 18.161 18.161 18.161h129.918v27.634c0 4.142 3.358 7.5 7.5 7.5s7.5-3.358 7.5-7.5v-27.634h23.189v64.781c0 7.453 6.063 13.517 13.517 13.517h41.147c.784 0 1.421.638 1.421 1.422v20.346c0 .784-.638 1.421-1.421 1.421h-132.516c-.784 0-1.422-.638-1.422-1.421v-20.346c0-.784.638-1.422 1.422-1.422h41.146c7.453 0 13.517-6.064 13.517-13.517v-7.147c0-4.142-3.358-7.5-7.5-7.5s-7.5 3.358-7.5 7.5v5.664h-39.663c-9.055 0-16.422 7.367-16.422 16.422v2.673h-28.849v-6.755c0-8.01-6.516-14.526-14.526-14.526h-28.51c-8.01 0-14.526 6.516-14.526 14.526v6.755h-28.847v-6.755c0-8.01-6.517-14.526-14.526-14.526h-28.51c-8.01-.002-14.526 6.514-14.526 14.524v28.509c0 8.01 6.516 14.526 14.526 14.526h28.509c8.01 0 14.526-6.516 14.526-14.526v-6.755h28.849v6.755c0 8.01 6.516 14.526 14.526 14.526h28.51c8.01 0 14.526-6.516 14.526-14.526v-6.755h28.849v2.673c0 9.055 7.367 16.421 16.422 16.421h132.516c9.055 0 16.421-7.367 16.421-16.421v-2.673h26.615v6.755c0 8.01 6.516 14.526 14.526 14.526h28.51c8.01 0 14.526-6.516 14.526-14.526v-6.755h31.083v6.755c0 8.01 6.516 14.526 14.526 14.526h28.509c8.01 0 14.526-6.516 14.526-14.526v-28.509c-.001-8.01-6.518-14.526-14.527-14.526zm-350.176-315.373h215.497v17.841h-215.497zm-50.472 109.346v-73.345c0-1.743 1.418-3.161 3.161-3.161h313.026c1.743 0 3.161 1.418 3.161 3.161v73.345c0 1.743-1.418 3.161-3.161 3.161h-313.026c-1.743 0-3.161-1.418-3.161-3.161zm50.472 18.161h215.497v17.088h-215.497zm-50.472 108.593v-73.345c0-1.743 1.418-3.161 3.161-3.161h313.026c1.743 0 3.161 1.418 3.161 3.161v73.345c0 1.743-1.418 3.161-3.161 3.161h-313.026c-1.743 0-3.161-1.418-3.161-3.161zm-53.264 121.834h-27.562v-27.561h27.562zm86.41 0h-27.562v-27.561h27.562zm278.384 0h-27.562v-27.561h27.562zm88.644 0h-27.561v-27.561h27.561z"/><path d="m389.394 299.617h-134.234c-7.571 0-13.73 6.159-13.73 13.73v20.918c0 7.571 6.159 13.73 13.73 13.73h134.233c7.571 0 13.73-6.159 13.73-13.73v-20.918c.001-7.57-6.159-13.73-13.729-13.73zm-1.27 33.378h-131.694v-18.378h131.693v18.378z"/><path d="m389.394 172.863h-134.234c-7.571 0-13.73 6.159-13.73 13.73v20.918c0 7.571 6.159 13.73 13.73 13.73h134.233c7.571 0 13.73-6.159 13.73-13.73v-20.918c.001-7.571-6.159-13.73-13.729-13.73zm-1.27 33.378h-131.694v-18.378h131.693v18.378z"/><path d="m389.394 93.734c7.571 0 13.73-6.159 13.73-13.73v-20.918c0-7.57-6.159-13.73-13.73-13.73h-134.234c-7.571 0-13.73 6.159-13.73 13.73v20.918c0 7.571 6.159 13.73 13.73 13.73zm-132.964-33.378h131.693v18.378h-131.693z"/></g></g></svg>