<svg id="Capa_1" enable-background="new 0 0 507.862 507.862" height="512" viewBox="0 0 507.862 507.862" width="512" xmlns="http://www.w3.org/2000/svg"><g><g><g><path d="m175.169 200.352h237.565c24.651 0 45.403-19.263 46.249-43.862.021-.608.031-1.218.031-1.831 0-28.968-23.519-52.451-52.531-52.451-.02 0-.039.001-.059.001.034-.774.059-1.551.059-2.333 0-28.968-23.519-52.451-52.531-52.451-9.038 0-17.543 2.281-24.97 6.295-12.182-26.16-38.135-44.633-68.562-46.122-45.236-2.214-83.695 34.085-83.941 79.305-.029 5.28.462 10.439 1.413 15.436-27.366 1.813-49.005 24.537-49.005 52.32 0 .613.01 1.223.031 1.831.848 24.599 21.6 43.862 46.251 43.862z" fill="#ddebfd"/></g></g><g><g><path d="m406.484 102.208c-.02 0-.039.001-.059.001.034-.774.059-1.551.059-2.333 0-28.968-23.519-52.451-52.531-52.451-9.038 0-17.543 2.281-24.97 6.295-12.182-26.16-38.135-44.633-68.562-46.122-24.226-1.186-46.5 8.683-62.01 25.044 9.929-3.759 20.759-5.595 32.01-5.044 21.158 1.036 40.153 10.284 53.858 24.619 9.841 10.293 23.513 15.756 37.745 15.243.64-.023 1.283-.035 1.928-.035 27.933 0 41.027 16.464 47.147 31.343 5.113 12.429 15.167 22.218 27.809 26.778 14.286 5.154 30.106 17.906 30.106 49.113 0 .613-.01 1.223-.031 1.831-.292 8.498-2.962 16.358-7.346 23.008 20.559-3.976 36.604-21.44 37.346-43.008.021-.608.031-1.218.031-1.831.001-28.968-23.518-52.451-52.53-52.451z" fill="#bed9fd"/></g></g><g><g><path d="m289.921 166.586h-30c6.07 0 10.99 4.92 10.99 10.99v322.786h30v-322.786c-.001-6.07-4.921-10.99-10.99-10.99z" fill="#f1f1f1"/></g></g><g><g><path d="m300.91 500.362h-241.073c-6.069 0-10.99-4.92-10.99-10.99v-311.796c0-6.07 4.92-10.99 10.99-10.99h230.083c6.069 0 10.99 4.92 10.99 10.99z" fill="#fdfcfc"/></g></g><path d="m289.921 166.586h-34.322c6.07 0 10.99 4.92 10.99 10.99v322.786h34.322v-322.786c-.001-6.07-4.921-10.99-10.99-10.99z" fill="#f1f1f1"/><g><g><path d="m255.202 302.216-10.347-28.72c-2.939-8.158-10.679-13.597-19.351-13.597h-103.743c-11.36 0-20.568 9.209-20.568 20.568v208.267c0 6.422 5.206 11.628 11.628 11.628h266.623c6.422 0 11.628-5.206 11.628-11.628v-167.203c0-6.422-5.206-11.628-11.628-11.628h-113.302c-4.902-.001-9.278-3.075-10.94-7.687z" fill="#ffe07d"/></g></g><g><g><path d="m214.855 273.495 10.347 28.72c1.662 4.612 6.037 7.687 10.94 7.687h30c-4.902 0-9.278-3.075-10.94-7.687l-10.347-28.72c-2.939-8.158-10.679-13.597-19.351-13.597h-30c8.672.001 16.412 5.439 19.351 13.597z" fill="#ffd064"/></g></g><g><g><path d="m379.443 309.902h-30c6.422 0 11.628 5.206 11.628 11.628v167.203c0 6.422-5.206 11.628-11.628 11.628h30c6.422 0 11.628-5.206 11.628-11.628v-167.202c.001-6.422-5.205-11.629-11.628-11.629z" fill="#ffd064"/></g></g><g><g><path d="m303.279 432.106h-114.294c-2.057 0-3.725-1.668-3.725-3.725v-44.526c0-2.057 1.668-3.725 3.725-3.725h114.295c2.057 0 3.725 1.668 3.725 3.725v44.526c-.001 2.057-1.669 3.725-3.726 3.725z" fill="#95d6a4"/></g></g><g><g><path d="m303.279 380.13h-30c2.057 0 3.725 1.668 3.725 3.725v44.526c0 2.057-1.667 3.725-3.725 3.725h30c2.057 0 3.725-1.668 3.725-3.725v-44.526c0-2.057-1.668-3.725-3.725-3.725z" fill="#78c2a4"/></g></g><g><path d="m413.799 95.151c-2.42-30.857-28.337-55.226-59.846-55.226-7.395 0-14.741 1.373-21.6 4.008-14.759-25.769-41.556-42.357-71.566-43.826-23.979-1.172-46.873 7.344-64.446 23.987-17.514 16.587-27.231 38.879-27.361 62.768-.017 3.022.124 6.052.421 9.066-27.488 5.597-48.012 30.001-48.012 58.731 0 .699.012 1.396.036 2.088.027.78.073 1.56.134 2.339h-61.722c-10.195 0-18.49 8.294-18.49 18.49v77.324c0 4.142 3.358 7.5 7.5 7.5s7.5-3.358 7.5-7.5v-77.325c0-1.924 1.565-3.49 3.49-3.49h230.083c1.924 0 3.489 1.565 3.489 3.49v124.827h-27.268c-1.735 0-3.296-1.097-3.885-2.729v.001l-10.347-28.721c-3.998-11.098-14.61-18.555-26.407-18.555h-103.741c-15.477 0-28.068 12.592-28.068 28.069v208.267c0 1.418.167 2.797.461 4.128h-34.317c-1.924 0-3.49-1.565-3.49-3.49v-204.472c0-4.142-3.358-7.5-7.5-7.5s-7.5 3.358-7.5 7.5v204.472c0 10.195 8.294 18.49 18.49 18.49h319.606c10.547 0 19.128-8.581 19.128-19.128v-167.203c0-10.547-8.581-19.128-19.128-19.128h-71.033v-94.55h46.706c4.143 0 7.5-3.358 7.5-7.5s-3.357-7.5-7.5-7.5h-46.706v-15.276c0-10.195-8.294-18.49-18.489-18.49h-153.289c-.106-.948-.184-1.9-.216-2.855-.018-.522-.027-1.046-.027-1.572 0-23.582 18.449-43.276 42-44.837 2.143-.142 4.123-1.196 5.438-2.896 1.314-1.699 1.836-3.881 1.435-5.991-.876-4.601-1.307-9.309-1.281-13.993.107-19.759 8.161-38.212 22.676-51.959 14.573-13.802 33.517-20.868 53.399-19.896 26.931 1.318 50.737 17.334 62.13 41.797.872 1.874 2.479 3.304 4.441 3.954 1.963.65 4.105.462 5.924-.522 6.527-3.528 13.929-5.393 21.403-5.393 24.83 0 45.03 20.165 45.03 44.951 0 .672-.021 1.338-.052 2.003-.09 2.044.659 4.037 2.074 5.516s3.372 2.315 5.419 2.315c.042 0 .09 0 .139-.001 24.793.044 44.951 20.192 44.951 44.951 0 .524-.008 1.046-.026 1.573-.694 20.192-18.079 36.62-38.754 36.62h-27.618c-4.143 0-7.5 3.358-7.5 7.5s3.357 7.5 7.5 7.5h27.618c13.892 0 27.101-5.238 37.194-14.748 10.197-9.607 16.074-22.519 16.55-36.35.024-.696.036-1.394.036-2.096 0-30.585-23.051-55.894-52.716-59.507zm-30.228 226.38v167.203c0 2.276-1.852 4.128-4.128 4.128h-265.01-1.613c-2.276 0-4.128-1.852-4.128-4.128v-208.267c0-7.206 5.862-13.069 13.068-13.069h103.743c5.492 0 10.434 3.472 12.296 8.639l10.347 28.72v.001c2.726 7.563 9.957 12.644 17.996 12.644h113.301c2.277 0 4.128 1.852 4.128 4.129z"/><path d="m177.76 383.855v44.527c0 6.189 5.035 11.225 11.225 11.225h114.294c6.19 0 11.225-5.035 11.225-11.225v-44.527c0-6.189-5.035-11.225-11.225-11.225h-114.294c-6.19 0-11.225 5.036-11.225 11.225zm15 3.775h106.744v36.976h-106.744z"/><path d="m244.248 221.04c4.143 0 7.5-3.358 7.5-7.5s-3.357-7.5-7.5-7.5h-138.738c-4.142 0-7.5 3.358-7.5 7.5s3.358 7.5 7.5 7.5z"/></g></g></svg>